<svg fill="none" height="100%" width="100%" viewBox="0 0 500 500" xmlns:xlink="http://www.w3.org/1999/xlink" xmlns="http://www.w3.org/2000/svg"><g id="i0"><g transform="translate(277,266)"><animateTransform repeatCount="indefinite" type="translate" attributeName="transform" dur="1.001s" begin="0s" calcMode="spline" values="277 266; 277 200; 277 266; 277 266" keyTimes="0; 0.133333; 0.3; 1" keySplines="0.167 0 0.833 1; 0.167 0 0.833 1; 0 0 1 1" fill="freeze" /><g transform="scale(1,1) translate(0,0)"><g id="i1" transform="matrix(1,0,0,1,-167.432,-17.432)"><ellipse ry="22.569" rx="22.569" cy="0" cx="0" stroke-width="8" stroke="#10069f" fill="#10069f" /></g></g></g></g><g id="i2"><g transform="translate(365,267.437)"><animateTransform repeatCount="indefinite" type="translate" attributeName="transform" dur="1.001s" begin="0s" calcMode="spline" values="365 267.437; 365 266; 365 200; 365 266; 365 266" keyTimes="0; 0.133333; 0.3; 0.433333; 1" keySplines="0 0 1 1; 0.167 0 0.833 1; 0.167 0 0.833 1; 0 0 1 1" fill="freeze" /><g transform="scale(1,1) translate(0,0)"><g id="i1" transform="matrix(1,0,0,1,-167.432,-17.432)"><ellipse ry="22.569" rx="22.569" cy="0" cx="0" stroke-width="8" stroke="#9367f4" fill="#9367f4" /></g></g></g></g><g id="i3"><g transform="translate(454,266)"><animateTransform repeatCount="indefinite" type="translate" attributeName="transform" dur="1.001s" begin="0s" calcMode="spline" values="454 266; 454 266; 454 200; 454 266; 454 266" keyTimes="0; 0.3; 0.433333; 0.566667; 1" keySplines="0 0 1 1; 0.167 0 0.833 1; 0.167 0 0.833 1; 0 0 1 1" fill="freeze" /><g transform="scale(1,1) translate(0,0)"><g id="i1" transform="matrix(1,0,0,1,-167.432,-17.432)"><ellipse ry="22.569" rx="22.569" cy="0" cx="0" stroke-width="8" stroke="#10069f" fill="#10069f" /></g></g></g></g><g id="i4"><g transform="translate(546,266)"><animateTransform repeatCount="indefinite" type="translate" attributeName="transform" dur="1.001s" begin="0s" calcMode="spline" values="546 266; 546 266; 546 200; 546 266; 546 266" keyTimes="0; 0.433333; 0.566667; 0.7; 1" keySplines="0 0 1 1; 0.167 0 0.833 1; 0.167 0 0.833 1; 0 0 1 1" fill="freeze" /><g transform="scale(1,1) translate(0,0)"><g id="i1" transform="matrix(1,0,0,1,-167.432,-17.432)"><ellipse ry="22.569" rx="22.569" cy="0" cx="0" stroke-width="8" stroke="#9367f4" fill="#9367f4" /></g></g></g></g></svg>