<svg fill="none" height="100%" width="100%" viewBox="0 0 80 80" xmlns:xlink="http://www.w3.org/1999/xlink" xmlns="http://www.w3.org/2000/svg"><defs><clipPath id="i0"><rect height="80" width="80" y="0" x="0" /></clipPath><g id="i1"><g opacity="0" id="i2"><animate repeatCount="indefinite" attributeName="opacity" dur="3.3s" begin="0s" fill="freeze" values="0; 0; 1; 0; 0" keyTimes="0; 0.535354; 0.545455; 0.676768; 1" keySplines="0 0 1 1; 0.167 0 0.833 1; 0.333 0 0.667 1; 0 0 1 1" calcMode="spline" /><g transform="translate(40,40)"><g transform="scale(0.776,0.776)"><animateTransform repeatCount="indefinite" type="scale" attributeName="transform" dur="3.3s" begin="0s" calcMode="spline" values="0.776 0.776; 0.776 0.776; 1.266 1.266; 1.266 1.266" keyTimes="0; 0.494949; 0.676768; 1" keySplines="0 0 1 1; 0.333 0 0.667 1; 0 0 1 1" fill="freeze" /><g transform="translate(0,0)"><g id="i3" transform="matrix(1.581,0,0,1.581,-0.589,-0.647)"><ellipse ry="18.892" rx="18.892" cy="0" cx="0" stroke-width="1" stroke="#fffcfc" /></g></g></g></g></g><g id="i4"><g transform="translate(40,40)"><animateTransform repeatCount="indefinite" type="translate" attributeName="transform" dur="3.3s" begin="0s" calcMode="spline" values="40 40; 40 40; 40 48; 40 38; 40 40; 40 40" keyTimes="0; 0.353535; 0.464647; 0.565657; 0.676768; 1" keySplines="0 0 1 1; 0.333 0 0.667 1; 0.333 0 0.667 1; 0.333 0 0.667 1; 0 0 1 1" fill="freeze" /><g transform="scale(1,1) translate(0,-4)"><g id="i5"><path stroke-width="2" stroke="#d9b351" d="M-7.812,1.438C-7.812,1.438,0.125,9.188,0.125,9.188C0.125,9.188,7.688,1,7.688,1" /></g></g></g></g></g></defs><g transform="matrix(1,0,0,1,0.5,0.5)" id="i6"><g clip-path="url(#i0)"><g opacity="0"><animate repeatCount="indefinite" attributeName="opacity" dur="3.3s" begin="0s" fill="freeze" values="0; 0; 1; 0; 0" keyTimes="0; 0.535354; 0.545455; 0.676768; 1" keySplines="0 0 1 1; 0.167 0 0.833 1; 0.333 0 0.667 1; 0 0 1 1" calcMode="spline" /><g transform="translate(40,40)"><g transform="scale(0.776,0.776)"><animateTransform repeatCount="indefinite" type="scale" attributeName="transform" dur="3.3s" begin="0s" calcMode="spline" values="0.776 0.776; 0.776 0.776; 1.266 1.266; 1.266 1.266" keyTimes="0; 0.494949; 0.676768; 1" keySplines="0 0 1 1; 0.333 0 0.667 1; 0 0 1 1" fill="freeze" /><g transform="translate(0,0)"><g transform="matrix(1.581,0,0,1.581,-0.589,-0.647)"><ellipse ry="18.892" rx="18.892" cy="0" cx="0" stroke-width="1" stroke="#fffcfc" /></g></g></g></g></g><g><g transform="translate(40,40)"><animateTransform repeatCount="indefinite" type="translate" attributeName="transform" dur="3.3s" begin="0s" calcMode="spline" values="40 40; 40 40; 40 48; 40 38; 40 40; 40 40" keyTimes="0; 0.353535; 0.464647; 0.565657; 0.676768; 1" keySplines="0 0 1 1; 0.333 0 0.667 1; 0.333 0 0.667 1; 0.333 0 0.667 1; 0 0 1 1" fill="freeze" /><g transform="scale(1,1) translate(0,-4)"><g><path stroke-width="2" stroke="#d9b351" d="M-7.812,1.438C-7.812,1.438,0.125,9.188,0.125,9.188C0.125,9.188,7.688,1,7.688,1" /></g></g></g></g></g></g></svg>